<?xml version="1.0" standalone="no"?> <!DOCTYPE svg PUBLIC "-//W3C//DTD SVG 20010904//EN" "http://www.w3.org/TR/2001/REC-SVG-20010904/DTD/svg10.dtd"> <svg version="1.0" xmlns="http://www.w3.org/2000/svg" width="76.000000pt" height="76.000000pt" viewBox="0 0 76.000000 76.000000" preserveAspectRatio="xMidYMid meet"> <g transform="translate(0.000000,76.000000) scale(0.100000,-0.100000)" fill="#cf792c" stroke="none"> <path d="M270 600 c-15 -16 -36 -30 -45 -30 -29 0 -75 -55 -75 -91 0 -20 -9 -42 -22 -57 -32 -33 -32 -111 -1 -144 15 -15 20 -31 17 -45 -12 -44 42 -113 87 -113 6 0 24 -13 39 -30 32 -34 61 -38 110 -12 161 82 320 266 320 370 0 20 -10 56 -21 80 -18 36 -32 49 -76 69 -63 29 -101 26 -157 -12 l-37 -25 -10 24 c-24 51 -88 59 -129 16z m102 -17 c14 -12 18 -31 18 -77 0 -65 -14 -97 -51 -117 -29 -15 -77 6 -85 37 -3 13 -11 24 -16 24 -6 0 -8 -9 -5 -20 8 -30 -7 -32 -37 -5 -33 30 -34 68 -1 100 31 32 51 32 59 0 4 -14 18 -31 31 -37 14 -6 25 -19 25 -30 0 -10 6 -18 14 -18 9 0 12 8 8 25 -2 14 1 31 7 39 9 10 9 16 1 21 -6 4 -17 -1 -25 -11 -11 -15 -15 -16 -29 -5 -18 15 -21 44 -6 72 13 24 66 26 92 2z m253 -24 c99 -88 59 -208 -125 -372 -97 -87 -90 -97 -90 134 l0 202 36 33 c31 30 42 34 89 34 46 0 59 -5 90 -31z m-440 -155 c13 -9 30 -17 37 -18 54 -10 79 -19 75 -29 -2 -7 -13 -13 -25 -15 -25 -4 -30 -32 -7 -32 9 0 26 10 39 23 13 12 37 32 54 45 l32 23 0 -140 c0 -148 -4 -161 -51 -176 -26 -9 -67 18 -75 50 -11 46 46 102 62 60 7 -16 34 -21 34 -6 0 5 -7 14 -15 21 -18 15 -19 42 -3 58 6 6 9 15 5 18 -8 9 -37 -15 -37 -30 0 -7 -13 -22 -29 -34 -16 -12 -32 -35 -36 -52 -4 -16 -13 -30 -20 -30 -20 0 -65 59 -65 86 0 31 15 30 46 -3 l24 -26 -2 34 c-1 19 2 42 6 52 5 11 4 17 -4 17 -6 0 -14 -9 -17 -20 -7 -25 -24 -25 -56 0 -34 27 -45 81 -23 115 19 29 20 30 51 9z"/> <path d="M530 552 c0 -4 15 -12 33 -17 21 -7 38 -21 49 -43 23 -46 28 -50 28 -18 0 36 -49 86 -84 86 -14 0 -26 -4 -26 -8z"/> </g> </svg>