<?xml version="1.0" standalone="no"?> <!DOCTYPE svg PUBLIC "-//W3C//DTD SVG 20010904//EN" "http://www.w3.org/TR/2001/REC-SVG-20010904/DTD/svg10.dtd"> <svg version="1.0" xmlns="http://www.w3.org/2000/svg" width="75.000000pt" height="75.000000pt" viewBox="0 0 75.000000 75.000000" preserveAspectRatio="xMidYMid meet"> <g transform="translate(0.000000,75.000000) scale(0.100000,-0.100000)" fill="#cf792c" stroke="none"> <path d="M231 565 c-83 -69 -151 -131 -151 -138 0 -7 14 -12 37 -12 l38 0 2 -135 c1 -74 2 -143 3 -152 0 -16 11 -18 90 -18 50 0 90 4 90 9 0 16 -38 23 -103 19 l-62 -3 0 150 0 150 -27 5 c-26 5 -21 11 85 97 61 50 123 100 136 112 l23 20 62 -54 c33 -30 64 -55 69 -55 4 0 7 14 7 30 0 25 4 30 25 30 24 0 25 -3 25 -54 0 -52 2 -56 43 -90 41 -35 41 -36 15 -36 -35 0 -39 -22 -36 -180 l3 -125 -74 0 c-52 0 -75 -4 -79 -13 -3 -10 16 -12 85 -10 l88 3 0 150 0 150 43 3 c23 2 42 6 42 10 -1 4 -23 25 -50 46 -36 28 -50 47 -51 65 -3 103 1 96 -51 99 -43 3 -48 1 -48 -18 0 -19 -7 -16 -56 24 -31 26 -60 46 -64 46 -5 0 -76 -56 -159 -125z"/> <path d="M331 537 c-20 -20 -11 -53 24 -87 l35 -34 35 34 c36 35 45 70 23 87 -18 14 -103 14 -117 0z m47 -19 c8 -8 15 -8 26 1 17 14 36 7 36 -13 0 -7 -11 -23 -25 -36 l-26 -24 -26 26 c-16 16 -23 32 -20 42 7 19 19 20 35 4z"/> <path d="M274 412 c-24 -15 -35 -51 -24 -73 10 -17 7 -24 -14 -44 -20 -18 -26 -34 -26 -64 0 -22 4 -43 10 -46 6 -4 10 10 10 34 0 63 54 98 114 75 19 -7 21 -24 3 -24 -8 0 -22 -9 -32 -20 -24 -27 -14 -57 35 -105 l40 -39 45 44 c27 26 45 53 45 66 0 26 -24 54 -47 54 -13 0 -13 3 -3 15 7 8 28 15 46 15 45 0 74 -30 74 -74 0 -19 5 -38 10 -41 6 -4 10 12 10 40 0 37 -5 51 -26 70 -21 20 -24 27 -14 44 18 35 -13 81 -56 81 -33 0 -58 -34 -51 -72 3 -24 -1 -40 -14 -57 l-19 -23 -19 23 c-13 17 -17 33 -14 57 9 52 -42 91 -83 64z m60 -34 c15 -25 -4 -53 -35 -53 -19 0 -25 6 -27 29 -5 45 38 61 62 24z m170 1 c17 -25 12 -46 -15 -54 -38 -12 -65 35 -37 63 18 18 35 15 52 -9z m-127 -140 c8 -8 17 -7 32 2 17 12 23 11 37 -3 19 -18 11 -39 -30 -77 l-26 -24 -26 24 c-38 35 -48 57 -33 75 14 17 31 18 46 3z"/> </g> </svg>