<?xml version="1.0" standalone="no"?> <!DOCTYPE svg PUBLIC "-//W3C//DTD SVG 20010904//EN" "http://www.w3.org/TR/2001/REC-SVG-20010904/DTD/svg10.dtd"> <svg version="1.0" xmlns="http://www.w3.org/2000/svg" width="71.000000pt" height="71.000000pt" viewBox="0 0 71.000000 71.000000" preserveAspectRatio="xMidYMid meet"> <g transform="translate(0.000000,71.000000) scale(0.100000,-0.100000)" fill="#cf792c" stroke="none"> <path d="M285 626 c-74 -33 -119 -104 -119 -186 0 -56 16 -95 69 -169 14 -19 25 -44 25 -57 0 -13 5 -26 10 -29 6 -3 10 -23 10 -43 0 -24 7 -43 19 -54 10 -8 21 -22 23 -29 2 -7 20 -13 41 -13 47 0 87 40 87 89 0 19 4 36 9 39 4 3 11 23 15 43 3 21 21 57 40 81 66 83 74 178 20 255 -53 76 -167 109 -249 73z m185 -40 c96 -64 104 -179 20 -284 -17 -21 -33 -55 -37 -75 -5 -34 -8 -37 -39 -37 l-34 0 0 63 c0 89 7 107 39 107 41 0 67 25 80 74 6 25 11 50 11 55 0 20 -66 11 -101 -12 -35 -24 -35 -22 -38 -139 -1 -41 -21 -34 -21 7 0 39 -25 61 -75 67 -28 3 -30 1 -28 -30 1 -41 37 -82 70 -82 26 0 43 -31 43 -81 0 -27 -3 -29 -35 -29 -36 0 -39 3 -49 50 -3 14 -21 46 -40 70 -85 110 -61 230 59 295 44 24 123 15 175 -19z m16 -126 c-3 -11 -9 -29 -12 -40 -5 -19 -61 -56 -70 -47 -3 2 7 19 21 36 19 22 23 31 12 31 -8 0 -22 -10 -30 -22 -16 -23 -16 -23 -16 -2 -1 31 38 61 82 63 14 1 17 -4 13 -19z m-164 -87 c10 -9 18 -21 18 -26 0 -6 -8 -3 -18 6 -10 10 -22 14 -26 10 -4 -4 3 -15 16 -25 l23 -18 -22 0 c-15 0 -28 10 -38 30 -8 16 -15 31 -15 35 0 12 45 4 62 -12z m108 -219 c0 -11 -5 -14 -16 -10 -9 3 -38 6 -65 6 -27 0 -49 5 -49 10 0 6 28 10 65 10 53 0 65 -3 65 -16z m-2 -35 c-5 -16 -120 -17 -125 -1 -4 9 13 12 62 12 44 0 65 -4 63 -11z m-28 -38 c0 -11 -38 -21 -56 -14 -26 10 -14 23 21 23 19 0 35 -4 35 -9z"/> </g> </svg>